PathFileType	3	(X/Y/Z)	D:\minhoCalibration\240510\subject1_KPNP\preferred\preferred06.trc
DataRate	CameraRate	NumFrames	NumMarkers	Units	OrigDataRate	OrigDataStartFrame	OrigNumFrames
200.0	200.0	33	10	mm	200.0	369	190	
Frame#	Time	Left_Ankle_Outer1			Left_Ankle_Inner1			Left_Knee_Outer1			Left_Knee_Inner1			Left_Wrist1			Right_Wrist1			Right_Knee_Inner1			Right_Knee_Outer1			Right_Ankle_Inner1			Right_Ankle_Outer1			
		X1	Y1	Z1	X2	Y2	Z2	X3	Y3	Z3	X4	Y4	Z4	X5	Y5	Z5	X6	Y6	Z6	X7	Y7	Z7	X8	Y8	Z8	X9	Y9	Z9	X10	Y10	Z10	
369	1.835	-488.22479	125.37676	-554.59027	-542.32568	129.52531	-542.95923	-463.35007	545.82568	-368.33447	-570.85004	514.01135	-400.24536	-445.11349	946.60107	-571.38538	-710.02313	966.18488	-800.80273	-793.1098	495.86713	-775.01215	-823.90466	547.20154	-880.56183	-633.2467	167.98433	-1031.1925	-660.19568	192.36079	-1119.7233
370	1.84	-485.50049	124.56611	-554.23401	-539.48419	128.998	-543.48065	-461.896	544.81567	-367.1062	-568.97083	513.07593	-400.48752	-441.89368	948.59802	-567.38354	-709.04974	966.88531	-794.513	-801.07983	499.62308	-763.86145	-831.56934	550.49414	-869.32397	-639.22699	175.24998	-1025.0139	-666.42548	200.71379	-1113.0624
371	1.845	-483.11209	123.94864	-553.98004	-537.40894	128.51241	-543.95911	-459.91705	543.94562	-366.33099	-566.86475	512.11823	-400.9295	-438.6402	950.90637	-563.44391	-708.21863	967.78937	-787.95123	-808.61652	503.55499	-751.86359	-839.14069	554.1933	-857.1944	-645.36896	182.82573	-1018.4369	-672.77948	209.66379	-1105.8611
372	1.85	-481.11255	123.33719	-553.77539	-535.31421	128.11525	-544.20154	-457.63165	543.1618	-365.90915	-564.4613	511.59113	-401.0264	-435.3822	953.47467	-559.60901	-707.0777	968.83691	-781.22662	-815.90729	508.08047	-739.00067	-846.54944	558.17377	-844.32794	-651.43292	191.00829	-1011.443	-679.24829	219.25433	-1098.3967
373	1.855	-479.59756	122.76651	-553.57147	-533.46155	127.6966	-544.98431	-455.10291	542.50562	-365.84253	-561.85522	511.39243	-400.9545	-432.06882	956.36542	-555.84204	-706.15002	970.02246	-775.11676	-822.5025	513.08002	-725.47241	-853.77948	562.42871	-830.66479	-657.58472	199.69835	-1003.8008	-685.77472	229.41464	-1090.4292
374	1.86	-478.15454	122.52224	-553.40997	-532.29877	127.6442	-545.09717	-452.26431	542.07983	-366.23892	-558.73199	511.46799	-400.9776	-428.68237	959.45367	-552.30646	-705.42755	971.50006	-768.34094	-828.29156	518.37787	-711.47784	-860.71869	567.00836	-816.18524	-662.71674	209.23401	-996.03308	-692.56396	240.06274	-1081.5381
375	1.865	-477.17938	122.1711	-553.24207	-531.20129	127.72252	-545.15479	-448.85873	541.93939	-367.26086	-555.66638	511.84982	-400.80099	-425.02576	962.67822	-548.95911	-704.93658	973.22888	-761.26868	-833.18805	524.00861	-696.59375	-867.18207	571.85754	-801.0401	-667.43469	219.56235	-987.96674	-699.07916	251.52428	-1072.3713
376	1.87	-476.31302	122.04694	-553.09253	-530.27679	127.91255	-545.10687	-445.71146	541.93304	-368.53421	-552.39612	512.58453	-400.70276	-421.18338	966.0437	-545.91968	-704.55298	975.35229	-753.72058	-837.27051	529.84467	-680.89569	-873.16516	576.7804	-784.99017	-671.50262	230.73814	-979.60712	-705.56116	263.63449	-1062.9757
377	1.875	-475.29568	122.17696	-553.09998	-528.93195	127.87199	-544.98395	-442.40543	542.19128	-370.05249	-549.07611	513.60913	-400.81818	-416.9881	969.48877	-543.31134	-704.47644	978.05554	-745.65179	-840.3302	535.63928	-664.61597	-878.5058	581.78253	-767.69305	-674.84076	242.84505	-971.06744	-711.58521	276.40347	-1053.1832
378	1.88	-474.48425	122.37168	-552.99377	-528.17322	128.59546	-544.93799	-439.03052	542.74683	-371.96002	-545.70691	514.73267	-401.25659	-412.47537	973.03839	-541.38104	-704.81622	981.16547	-736.89331	-842.30023	541.20227	-647.65527	-883.19049	586.79669	-749.87775	-677.00684	256.20605	-962.10699	-717.12616	289.47787	-1043.1324
379	1.885	-473.55023	122.62903	-552.97284	-527.3457	129.10815	-544.8244	-435.49631	543.54907	-374.19226	-542.23126	515.98456	-402.29919	-407.56955	976.71509	-540.43976	-705.90381	984.87427	-727.31573	-843.005	546.35809	-630.39874	-887.25452	591.97284	-731.64807	-678.94934	270.07883	-953.27936	-722.4046	302.97797	-1032.588
380	1.89	-472.66653	122.98598	-552.98907	-526.21436	129.80859	-544.79279	-431.77731	544.52307	-376.74594	-538.59076	517.57324	-403.73993	-402.08035	980.31061	-540.73145	-706.64453	988.98138	-717.02441	-842.82031	551.2204	-612.30963	-890.70538	597.09424	-712.52295	-679.55322	285.69144	-943.64587	-727.19464	317.0275	-1021.6635
381	1.895	-471.8381	123.37486	-553.01843	-525.18738	130.67004	-544.57507	-428.11203	545.70917	-379.8616	-534.87903	519.29926	-405.64114	-396.02759	983.74017	-542.40479	-707.91425	993.45209	-706.01154	-841.65326	556.00482	-593.38171	-893.34949	602.17462	-692.61731	-679.16656	302.69794	-932.95026	-730.59344	331.78387	-1009.7596
382	1.9	-470.93625	123.98193	-553.04572	-524.08429	131.57378	-544.43164	-423.87283	547.11865	-382.84177	-531.08289	521.25787	-407.73404	-389.78711	986.95819	-545.45996	-709.10077	998.60535	-694.40808	-839.38361	560.71045	-573.73779	-895.33228	607.23035	-671.92426	-678.76923	319.59351	-921.79199	-732.60229	347.56927	-996.65094
383	1.905	-469.96817	124.64114	-553.09021	-523.14685	132.58147	-544.15887	-419.65396	548.65149	-386.41693	-526.7561	523.12177	-411.13852	-383.09302	990.01764	-549.31311	-710.14178	1003.3682	-681.88379	-836.28717	565.27032	-553.54895	-896.49493	612.44775	-649.82471	-677.73309	337.42743	-909.12628	-733.56934	365.17508	-982.99091
384	1.91	-468.99103	125.44197	-553.18829	-522.10333	133.29456	-543.13544	-415.3924	550.38129	-390.55701	-522.68677	525.31543	-413.74237	-376.40353	993.04803	-553.9704	-710.70905	1008.4959	-669.36853	-832.02014	569.86426	-532.57526	-896.66742	617.81689	-626.61023	-677.12354	355.0181	-895.69867	-734.06238	383.69849	-968.24744
385	1.915	-468.01526	126.30577	-553.38263	-521.55774	134.84286	-542.71759	-410.88141	552.23242	-394.8652	-518.42096	527.49652	-416.42914	-369.90628	996.15973	-559.3006	-711.04675	1013.3925	-656.50891	-826.39294	574.97974	-510.37799	-895.68433	623.42114	-600.91986	-676.41913	372.97052	-881.41949	-734.57721	403.07016	-952.28479
386	1.92	-467.1962	127.44041	-553.48248	-520.19513	136.44789	-542.40344	-406.16077	554.30005	-399.4628	-513.93616	529.81012	-419.19025	-363.52637	999.39062	-565.3349	-710.03778	1018.9632	-644.18719	-818.96997	580.6958	-488.75595	-893.52972	629.5697	-574.96277	-676.00989	391.38437	-866.36346	-735.53571	423.0611	-935.32886
387	1.925	-466.40857	128.54636	-553.56482	-519.24408	138.04961	-541.72784	-401.29532	556.51801	-404.45862	-509.29816	532.19696	-421.97113	-357.88254	1002.6729	-571.72968	-709.35516	1024.4189	-631.15564	-810.08673	587.26141	-466.10403	-890.19275	636.34045	-548.32166	-676.13611	410.14771	-850.8609	-737.18018	443.55182	-917.2746
388	1.93	-465.71823	129.84749	-553.52582	-518.34821	139.86165	-540.91687	-396.31186	558.83234	-409.72519	-504.63672	534.79395	-424.4881	-352.87616	1006.2138	-578.62976	-707.05463	1029.8164	-619.52936	-799.68793	594.61932	-442.90817	-885.66998	643.59259	-520.97229	-676.85394	429.54922	-835.01471	-739.82507	464.7778	-898.71198
389	1.935	-464.96777	131.38609	-553.59772	-517.42737	141.88547	-539.99323	-391.08047	561.35278	-415.18939	-499.76233	537.4552	-427.23318	-348.51874	1009.8494	-585.87048	-704.8241	1035.8339	-607.1734	-787.72382	602.60291	-419.93018	-879.31848	651.42981	-492.91388	-678.17401	449.65454	-818.96039	-743.68567	486.12299	-879.25568
390	1.94	-464.22	133.13423	-553.56604	-516.52954	143.98744	-538.68036	-385.82126	563.875	-420.74893	-494.81281	540.29242	-429.76001	-344.84851	1013.5533	-593.40234	-702.21478	1042.1445	-595.09137	-774.61005	611.30182	-397.20914	-871.45319	659.88263	-464.48373	-680.56042	470.72336	-802.79364	-748.78192	507.63239	-858.91943
391	1.945	-463.53827	134.98334	-553.45197	-515.61224	146.32826	-537.34515	-380.39059	566.51105	-426.45773	-489.72623	543.61121	-431.65894	-341.63171	1017.313	-601.33484	-698.81128	1048.0883	-584.09467	-760.11444	621.09082	-374.2464	-862.10413	669.14899	-435.84137	-683.37531	492.51242	-786.08728	-755.07489	529.42694	-837.92255
392	1.95	-463.07193	136.7446	-553.45886	-514.4353	148.51543	-535.42084	-374.76236	569.10095	-432.19681	-485.38812	546.65546	-432.37329	-339.08679	1020.8454	-609.59753	-695.03094	1054.5677	-573.06	-744.58417	631.66498	-351.74539	-851.10254	679.03918	-407.03024	-686.97113	514.78687	-768.742	-762.11359	551.46295	-816.02429
393	1.955	-462.59918	138.76012	-553.39935	-513.73651	151.06366	-533.97473	-368.99664	571.37988	-438.19705	-479.83173	549.56964	-434.3364	-336.97275	1024.2523	-618.18457	-690.47339	1061.6345	-563.14722	-728.22565	643.14758	-329.4747	-838.61322	689.78436	-378.41986	-691.12097	537.38068	-750.44092	-769.55792	573.78485	-793.02899
394	1.96	-462.29349	140.72678	-553.35333	-512.86353	153.55637	-531.98712	-363.33862	573.71759	-444.12906	-474.02393	552.29633	-436.18848	-335.35294	1027.4729	-627.0614	-686.21594	1068.0049	-553.05737	-710.99176	655.39496	-307.58633	-824.61688	701.50739	-350.24265	-693.70184	560.27997	-731.89276	-776.90979	596.33118	-768.80438
395	1.965	-462.11407	142.64293	-553.52271	-512.15186	156.02364	-530.22833	-357.61154	575.92688	-450.19031	-468.18359	554.98138	-437.54858	-334.36554	1030.3497	-636.22534	-680.19055	1074.2721	-544.32349	-693.01385	668.45575	-286.11087	-809.02527	714.39923	-322.55872	-700.83344	581.64685	-710.72748	-784.17133	618.84943	-743.51086
396	1.97	-462.27695	144.64189	-553.76929	-511.72601	158.44206	-528.67792	-351.99664	577.85962	-456.43094	-461.6701	557.20209	-439.78308	-334.30499	1032.8059	-645.375	-675.66156	1081.136	-534.78284	-673.47119	682.0896	-266.06345	-792.00897	728.23401	-295.5647	-705.06238	603.39484	-689.89471	-791.14874	641.04266	-715.90503
397	1.975	-462.90491	146.48079	-554.17749	-511.57291	160.81267	-527.11523	-346.53424	579.47162	-462.75	-454.90775	559.99316	-439.43765	-334.4761	1034.9561	-654.86682	-670.19318	1087.429	-526.50677	-653.4873	696.70685	-246.02728	-773.41327	743.18402	-269.1727	-711.99091	624.1319	-667.01318	-797.6792	663.61804	-688.09558
398	1.98	-463.95651	148.26617	-554.74847	-511.62643	163.09908	-525.81165	-341.29736	580.84009	-469.13437	-448.87601	561.48572	-439.71143	-335.58191	1036.6161	-664.29224	-664.25403	1093.3654	-518.97034	-632.57587	711.75049	-227.51312	-753.64789	759.27545	-243.61938	-714.92877	645.65814	-646.40753	-804.05029	685.85828	-659.22382
399	1.985	-465.53271	149.99644	-555.52148	-512.10132	165.21507	-524.63245	-336.76047	581.63702	-475.56006	-441.80872	563.05493	-440.38535	-336.80157	1037.9932	-674.12262	-658.36462	1099.2529	-511.29477	-610.86865	726.87543	-210.19968	-732.01782	776.3692	-219.91042	-722.81982	664.96686	-620.49652	-809.99451	707.74054	-629.06494
400	1.99	-467.685	151.49225	-556.32159	-512.30713	166.93149	-522.27228	-332.32211	582.14453	-481.95798	-435.10849	564.17645	-440.59518	-339.63416	1038.7916	-682.95972	-651.5343	1105.1763	-504.63785	-588.3252	742.37579	-194.11601	-709.4679	794.94287	-196.18037	-729.65137	684.17816	-595.30457	-815.85095	729.35461	-598.17029
401	1.995	-470.3576	152.85544	-557.14636	-513.3371	168.50201	-520.94025	-329.28278	581.99774	-487.97925	-428.49741	564.85974	-441.07825	-342.4245	1039.4795	-692.30011	-645.80151	1111.0179	-497.21921	-564.98932	758.33826	-180.20238	-684.55444	813.95776	-174.94562	-736.44281	702.71924	-569.18616	-821.00049	750.21106	-565.5921
